<svg width="35" height="35" viewBox="0 0 43 43" fill="none" xmlns="http://www.w3.org/2000/svg">
<circle cx="21.5" cy="21.5" r="21.5" fill="#FF3A3A" fill-opacity="0.2"/>
<path d="M24.5934 11.2695C25.3216 11.2797 26.0164 11.4178 26.6652 11.7478C27.2372 12.0406 27.7036 12.4501 28.0219 13.0144C28.2288 13.3869 28.3645 13.7947 28.4221 14.2169C28.5405 15.0274 28.4208 15.8114 28.1535 16.5781C27.9964 17.0278 27.779 17.4496 27.5436 17.8638C27.064 18.7071 26.4478 19.4379 25.7311 20.0858C24.8115 20.9179 23.8031 21.6461 22.7241 22.2574C22.3061 22.4935 21.8727 22.6917 21.4065 22.8129C21.1209 22.8901 20.8261 22.9274 20.5303 22.9238C20.1409 22.9159 19.8362 22.7386 19.5992 22.4398C19.3804 22.1717 19.2677 21.8325 19.2824 21.4868C19.285 21.3906 19.2989 21.295 19.3238 21.2021C19.4648 20.7012 19.6564 20.2213 19.9429 19.7838C20.1618 19.4496 20.4227 19.1528 20.7639 18.9405C21.1434 18.7042 21.5559 18.6032 22.0021 18.7007C22.1415 18.7334 22.2728 18.7944 22.3877 18.88C22.6814 19.0899 22.666 19.4192 22.525 19.6295C22.4042 19.8123 22.2691 19.9852 22.1211 20.1468C21.8703 20.4169 21.6039 20.6723 21.3438 20.9337C21.1137 21.1649 20.8974 21.4076 20.7221 21.6841C20.6312 21.8276 20.5474 21.9739 20.5223 22.1461C20.4907 22.3622 20.6029 22.5093 20.8209 22.5296C20.9337 22.5388 21.0472 22.5274 21.1559 22.4959C21.491 22.4033 21.8021 22.2539 22.1077 22.0929C22.5789 21.8436 23.0138 21.5389 23.4378 21.2175C23.9517 20.8279 24.4513 20.4215 24.9118 19.9697C25.4363 19.4555 25.9038 18.8967 26.2615 18.2519C26.5228 17.7811 26.7153 17.2839 26.8009 16.7506C26.8766 16.2809 26.8344 15.8233 26.6168 15.3921C26.512 15.179 26.3481 15.0005 26.1447 14.878C26.0507 14.8214 25.9471 14.7828 25.8391 14.764C25.4459 14.6943 25.0656 14.7515 24.6918 14.8762C24.3022 15.0065 23.9407 15.1965 23.5894 15.4042C22.8268 15.8565 22.0634 16.3086 21.3368 16.8179C20.9725 17.0731 20.6194 17.3446 20.2623 17.6099C19.9398 17.8497 19.6195 18.0924 19.267 18.2884C18.981 18.4513 18.6714 18.5688 18.3494 18.6367C17.9503 18.7176 17.5825 18.6424 17.2446 18.4255C16.8939 18.2004 16.6484 17.8915 16.5406 17.4828C16.4719 17.2247 16.499 16.9689 16.5582 16.7141C16.6446 16.3401 16.8087 16.0013 17.0133 15.6801C17.5193 14.8868 18.1556 14.2138 18.8954 13.6385C19.9919 12.786 21.1984 12.1295 22.5034 11.6545C23.1735 11.4094 23.8801 11.2793 24.5934 11.2695V11.2695Z" fill="#E20010"/>
<path d="M15.5732 29.4072C15.5694 29.1582 15.541 28.9342 15.3972 28.7399C15.3271 28.6461 15.2301 28.5758 15.1191 28.5384C14.8331 28.4359 14.5418 28.448 14.2578 28.5358C14.0301 28.6062 13.8105 28.7021 13.5877 28.7877C13.5437 28.804 13.5036 28.8249 13.4504 28.8486C13.3454 28.5884 13.2423 28.3358 13.1342 28.0718C13.2907 27.9977 13.4381 27.922 13.5901 27.8571C13.9403 27.7073 14.3035 27.6045 14.6855 27.5814C15.0674 27.5583 15.4442 27.5786 15.7918 27.7638C16.185 27.9719 16.4688 28.2724 16.5876 28.7098C16.6047 28.7671 16.615 28.8261 16.6182 28.8858C16.6333 29.4536 16.6538 30.0214 16.6562 30.5893C16.6578 30.9773 16.6322 31.3656 16.6208 31.7539C16.6188 31.8072 16.5966 31.8577 16.5588 31.8952C16.2871 32.1944 15.9546 32.4012 15.578 32.54C15.1741 32.6874 14.744 32.7492 14.315 32.7215C13.919 32.6995 13.5771 32.5374 13.288 32.2683C12.9989 31.9992 12.797 31.6743 12.7407 31.2761C12.6637 30.7307 12.821 30.2575 13.213 29.8681C13.4651 29.6177 13.7758 29.4884 14.1258 29.4426C14.513 29.3922 14.9015 29.4057 15.29 29.4068L15.5732 29.4072ZM15.5223 30.2938C15.4995 30.2893 15.4764 30.2861 15.4533 30.2843C15.3213 30.2817 15.1877 30.2771 15.0551 30.2791C14.896 30.2815 14.7363 30.2821 14.5781 30.2971C14.4146 30.3127 14.256 30.3605 14.1293 30.4696C13.919 30.6509 13.8565 30.8876 13.9078 31.1544C13.9716 31.4844 14.1559 31.715 14.4846 31.8131C14.6541 31.8638 14.8335 31.8714 15.0067 31.8351C15.1676 31.8057 15.3177 31.7337 15.4414 31.6266C15.4623 31.6103 15.4795 31.5898 15.4919 31.5663C15.5042 31.5429 15.5114 31.5171 15.5129 31.4906C15.5179 31.3747 15.5329 31.2589 15.5338 31.143C15.5355 30.8775 15.5316 30.6119 15.5294 30.3464C15.5281 30.3287 15.5257 30.3112 15.5223 30.2938V30.2938Z" fill="#E20010"/>
<path d="M28.8048 30.2721C27.861 30.2721 26.9348 30.2518 25.9957 30.2765C26.0005 30.3425 26.0034 30.4049 26.0093 30.4659C26.0335 30.7151 26.0872 30.9574 26.1926 31.1859C26.2745 31.3724 26.4017 31.5354 26.5626 31.6603C26.8178 31.8541 27.1091 31.8858 27.4147 31.8464C27.6672 31.8138 27.9024 31.7214 28.1369 31.6284C28.2445 31.5859 28.3512 31.5404 28.4669 31.4931C28.5769 31.7232 28.6847 31.9493 28.7969 32.1821C28.7762 32.1971 28.7569 32.2138 28.7353 32.2261C28.2777 32.4976 27.7862 32.6725 27.2554 32.7187C26.7714 32.7607 26.3094 32.6813 25.8914 32.4135C25.6067 32.2312 25.4074 31.9735 25.2406 31.6853C25.0352 31.3268 24.9109 30.9276 24.8763 30.5158C24.8065 29.765 24.9659 29.066 25.3546 28.4188C25.6256 27.9689 26.0302 27.7245 26.5366 27.6402C27.0022 27.5583 27.4817 27.6381 27.8956 27.8664C28.1275 27.992 28.2889 28.1898 28.422 28.4115C28.598 28.7039 28.6907 29.0262 28.7351 29.3602C28.7712 29.6294 28.7826 29.902 28.8042 30.1742C28.8068 30.2021 28.8048 30.2311 28.8048 30.2721ZM27.6608 29.4174C27.6061 29.1663 27.5687 28.9098 27.4043 28.6971C27.3219 28.5913 27.2061 28.5166 27.0759 28.485C26.7294 28.3933 26.3811 28.553 26.2322 28.881C26.1789 28.9978 26.1477 29.1248 26.109 29.2477C26.0916 29.3034 26.0804 29.3613 26.0665 29.4174C26.1596 29.442 27.5656 29.4431 27.6613 29.418L27.6608 29.4174Z" fill="#E20010"/>
<path d="M22.6135 26.4374L23.7397 26.2632V27.6463C23.9896 27.6613 24.2277 27.645 24.467 27.6707V28.5228C24.225 28.5268 23.9881 28.5195 23.741 28.5345C23.741 28.5824 23.741 28.6183 23.741 28.6541C23.739 29.4743 23.7372 30.2945 23.7358 31.1148C23.7358 31.244 23.7461 31.3733 23.7578 31.502C23.7762 31.7 23.886 31.8257 24.0779 31.8738C24.1837 31.9007 24.2924 31.9159 24.3997 31.9363L24.5075 31.9583V32.6815C24.4954 32.6875 24.4825 32.6917 24.4692 32.6942C24.1496 32.7085 23.8312 32.7002 23.5221 32.6062C23.2203 32.5151 22.9686 32.3501 22.7979 32.0782C22.7009 31.9242 22.6516 31.7511 22.6303 31.5722C22.6174 31.4602 22.611 31.3475 22.6113 31.2347C22.6113 29.6771 22.6122 28.1197 22.614 26.5624L22.6135 26.4374Z" fill="#E20010"/>
<path d="M29.4244 26.4383L30.5134 26.2495V26.3998C30.5134 27.8144 30.514 29.229 30.5151 30.6436C30.5151 30.9025 30.5173 31.1615 30.5193 31.4206C30.5211 31.6763 30.6143 31.8065 30.8585 31.8826C30.9415 31.9056 31.0258 31.9236 31.1109 31.9367C31.1628 31.9464 31.2154 31.951 31.2785 31.9587V32.6975C31.2727 32.7024 31.2657 32.7057 31.2583 32.7074C30.949 32.7199 30.641 32.7149 30.3402 32.6269C30.158 32.5744 29.9883 32.4855 29.8415 32.3655C29.568 32.1418 29.4567 31.8419 29.4281 31.5038C29.4197 31.4048 29.4208 31.3047 29.4211 31.2052C29.4211 29.6578 29.4222 28.1104 29.4244 26.5632V26.4383Z" fill="#E20010"/>
<path d="M20.4245 32.6323H19.3245C19.3232 32.5863 19.321 32.5443 19.3207 32.5027C19.3196 31.8418 19.3186 31.1809 19.3179 30.5201C19.3166 29.9921 19.3133 29.4641 19.3135 28.9361C19.3138 28.8403 19.3212 28.7447 19.3355 28.6501C19.3518 28.542 19.4083 28.4521 19.4868 28.3762C19.9189 27.9555 20.4366 27.7034 21.0268 27.5947C21.3968 27.5269 21.7759 27.5264 22.146 27.5932C22.1656 27.5967 22.1851 27.6011 22.2043 27.6059C22.2137 27.6084 22.2228 27.613 22.241 27.62C22.1161 27.9377 21.9638 28.2413 21.8204 28.5414C21.649 28.5414 21.4866 28.5363 21.3247 28.5425C21.0451 28.5518 20.7706 28.6201 20.5193 28.7431C20.448 28.7781 20.4214 28.8217 20.4216 28.9037C20.4247 30.1064 20.4254 31.3091 20.4238 32.5117L20.4245 32.6323Z" fill="#E20010"/>
<path d="M18.5134 27.6934C18.5251 29.3416 18.5123 30.9802 18.5229 32.6288H17.4464C17.4438 32.589 17.4385 32.5474 17.4385 32.5059C17.4385 31.4697 17.4385 30.4333 17.4385 29.3968C17.4385 28.9218 17.4424 28.4469 17.4444 27.9719C17.4444 27.9358 17.4444 27.8997 17.4444 27.8544L18.5134 27.6934Z" fill="#E20010"/>
<path d="M17.9295 27.2079C17.4039 27.2065 17.0748 26.6834 17.2928 26.1895C17.4268 25.8865 17.6569 25.7715 17.9889 25.7735C18.4338 25.7772 18.7635 26.2196 18.6575 26.6519C18.5728 26.9973 18.2956 27.2087 17.9295 27.2079Z" fill="#E20010"/>
</svg>
