<svg width="30" height="30" viewBox="0 0 30 30" fill="none" xmlns="http://www.w3.org/2000/svg">
<circle cx="15" cy="15" r="15" fill="#FF3A3A" fill-opacity="0.2"/>
<path d="M8.87012 14.2352C8.87012 13.2152 9.12512 12.2702 9.63012 11.4052C10.1351 10.5402 10.8201 9.85521 11.6851 9.35021C12.5501 8.84521 13.4901 8.59521 14.5051 8.59521C15.2651 8.59521 15.9951 8.74521 16.6901 9.04021C17.3851 9.33521 17.9801 9.74021 18.4851 10.2402C18.9901 10.7402 19.3901 11.3402 19.6851 12.0402C19.9801 12.7402 20.1301 13.4652 20.1301 14.2352C20.1301 14.9952 19.9801 15.7252 19.6851 16.4202C19.3901 17.1152 18.9851 17.7152 18.4851 18.2152C17.9851 18.7152 17.3851 19.1152 16.6901 19.4102C15.9951 19.7052 15.2701 19.8552 14.5051 19.8552C13.7401 19.8552 13.0051 19.7052 12.3101 19.4102C11.6151 19.1152 11.0151 18.7102 10.5101 18.2102C10.0051 17.7102 9.61012 17.1102 9.31012 16.4202C9.01012 15.7302 8.87012 15.0002 8.87012 14.2352V14.2352ZM10.1101 14.2352C10.1101 15.4202 10.5401 16.4502 11.4051 17.3252C12.2701 18.1902 13.3001 18.6202 14.5051 18.6202C15.2951 18.6202 16.0301 18.4252 16.7001 18.0302C17.3701 17.6352 17.9101 17.1052 18.3051 16.4302C18.7001 15.7552 18.9001 15.0252 18.9001 14.2352C18.9001 13.4452 18.7001 12.7102 18.3051 12.0352C17.9101 11.3602 17.3751 10.8252 16.7001 10.4302C16.0251 10.0352 15.2951 9.84021 14.5051 9.84021C13.7151 9.84021 12.9801 10.0352 12.3101 10.4302C11.6401 10.8252 11.1001 11.3602 10.7001 12.0352C10.3001 12.7102 10.1101 13.4452 10.1101 14.2352ZM11.7551 14.2302C11.7551 14.1152 11.7951 14.0152 11.8751 13.9352C11.9551 13.8552 12.0551 13.8152 12.1701 13.8152H14.0651V10.9052C14.0651 10.7902 14.1051 10.6902 14.1851 10.6102C14.2651 10.5302 14.3651 10.4902 14.4801 10.4902C14.5951 10.4902 14.6951 10.5302 14.7751 10.6102C14.8551 10.6902 14.8951 10.7902 14.8951 10.9052V14.2402C14.8951 14.3552 14.8551 14.4552 14.7751 14.5352C14.6951 14.6152 14.5951 14.6552 14.4801 14.6552C14.4301 14.6552 14.4001 14.6552 14.3851 14.6502H12.1651C12.0501 14.6502 11.9501 14.6102 11.8701 14.5252C11.7963 14.4447 11.7553 14.3394 11.7551 14.2302V14.2302Z" fill="#FF0000"/>
</svg>
