<svg width="35" height="35" viewBox="0 0 43 43" fill="none" xmlns="http://www.w3.org/2000/svg">
<circle cx="21.5" cy="21.5" r="21.5" fill="#FF3A3A" fill-opacity="0.2"/>
<path d="M22.0552 30.6402C26.9371 30.6402 30.8946 26.6827 30.8946 21.8008C30.8946 16.919 26.9371 12.9614 22.0552 12.9614C17.1733 12.9614 13.2158 16.919 13.2158 21.8008C13.2158 26.6827 17.1733 30.6402 22.0552 30.6402Z" fill="#50B651"/>
<path opacity="0.663" fill-rule="evenodd" clip-rule="evenodd" d="M30.8669 21.7757C30.8669 26.6729 26.897 30.6428 22.0009 30.6428C17.1048 30.6428 13.1338 26.6729 13.1338 21.7757C13.1338 19.6093 13.1945 19.2873 14.0472 18.0539C14.0472 18.0539 14.0032 19.447 15.0247 20.2759C15.6598 20.791 16.3227 20.4192 17.536 19.8604C18.8485 19.2554 19.9155 18.8651 20.748 18.968C22.002 19.1234 25.8672 21.4446 27.8843 20.9824C29.4958 20.6139 29.3258 16.8145 29.3258 16.8145C31.0858 18.5331 30.8669 19.6947 30.8669 21.7757Z" fill="url(#paint0_linear_3143_2793)"/>
<path opacity="0.586" fill-rule="evenodd" clip-rule="evenodd" d="M25.8057 28.2891C29.0125 25.2726 29.5456 21.8168 27.4048 17.9218C27.4157 17.9297 27.5481 17.4727 27.8022 16.5508C28.9415 17.9305 29.5473 19.6334 29.6196 21.6596C29.619 24.2841 28.3477 26.4939 25.8057 28.2891Z" fill="url(#paint1_linear_3143_2793)"/>
<path opacity="0.744" fill-rule="evenodd" clip-rule="evenodd" d="M24.2847 16.5691C22.7368 15.7124 20.961 13.9891 21.197 13.6272C21.4331 13.2653 24.497 13.3276 26.0452 14.1843C27.5933 15.0409 28.9109 17.6108 28.675 17.9727C28.4392 18.3346 25.8326 17.4257 24.2847 16.5691Z" fill="url(#paint2_radial_3143_2793)"/>
<path fill-rule="evenodd" clip-rule="evenodd" d="M25.6338 23.9774C24.3496 23.9774 23.3086 22.9067 23.3086 21.586C23.3086 20.2653 24.3496 19.1948 25.6338 19.1948C26.9179 19.1948 27.9592 20.2653 27.9592 21.586C27.9592 22.9067 26.9181 23.9774 25.6338 23.9774ZM25.6503 23.2188C26.4517 23.2188 27.1023 22.4878 27.1023 21.586C27.1023 20.6842 26.4517 19.9538 25.6503 19.9538C24.8488 19.9538 24.1983 20.6849 24.1983 21.5864C24.1983 22.488 24.8488 23.2188 25.6503 23.2188Z" fill="white"/>
<path fill-rule="evenodd" clip-rule="evenodd" d="M20.8359 17.2695H22.5115V23.9509H21.5916V18.0024H20.8359V17.2695Z" fill="white"/>
<path fill-rule="evenodd" clip-rule="evenodd" d="M19.5868 19.2629H20.4564V24.8426C20.4564 25.351 19.9216 25.8805 19.4004 26.1084C19.154 26.2161 18.6994 26.28 18.0364 26.3003V25.7452C18.6849 25.6729 19.1225 25.5287 19.3494 25.3125C19.4803 25.1305 19.5622 24.9179 19.587 24.6951V23.0559C19.3545 23.5492 19.0618 23.8762 18.7088 24.0369C18.3418 24.2349 17.5949 24.2024 17.29 24.0369C16.9851 23.8715 16.5378 23.4359 16.3328 22.7871C16.276 22.608 16.1348 22.1207 16.1495 21.6044C16.1627 21.1127 16.3255 20.5924 16.4608 20.3785C16.6931 20.0133 17.0594 19.5559 17.6143 19.3648C17.8853 19.2713 18.3876 19.2378 19.1213 19.264V19.816C18.5761 19.7792 18.236 19.7976 18.1009 19.8712C17.8983 19.9812 17.4409 20.1169 17.29 21.1138C17.1391 22.1106 17.2944 22.9263 17.7729 23.1818C17.9368 23.2698 18.2267 23.3738 18.4947 23.2821C19.0095 23.1061 19.4939 22.4784 19.5309 22.0532C19.5682 21.6217 19.5868 20.6916 19.5868 19.2629Z" fill="white"/>
<path fill-rule="evenodd" clip-rule="evenodd" d="M30.5888 23.5505C29.7675 27.505 26.2634 30.4763 22.0655 30.4763C17.2579 30.4763 13.3604 26.5788 13.3604 21.7711C13.3604 18.7844 14.8645 16.149 17.1565 14.5815C15.2942 16.1259 14.1084 18.459 14.1084 21.068C14.1084 25.7217 17.8809 29.494 22.5344 29.494C26.3241 29.494 29.529 26.9924 30.5888 23.5505Z" fill="url(#paint3_radial_3143_2793)"/>
<path fill-rule="evenodd" clip-rule="evenodd" d="M22.0663 11.4619C16.3727 11.4619 11.7568 16.0775 11.7568 21.7711C11.7568 27.4647 16.3727 32.0805 22.0663 32.0805C27.7599 32.0805 32.3757 27.4647 32.3757 21.7711C32.3757 16.0775 27.7599 11.4619 22.0663 11.4619ZM22.0663 30.4765C17.2586 30.4765 13.3611 26.579 13.3611 21.7713C13.3611 18.7846 14.8652 16.1492 17.1572 14.5817C18.6026 13.5917 20.3143 13.0632 22.0663 13.0659C26.8739 13.0659 30.7714 16.9632 30.7714 21.7711C30.7717 22.3689 30.7108 22.9651 30.5895 23.5505C29.7682 27.505 26.2641 30.4763 22.0663 30.4763V30.4765Z" fill="white"/>
<defs>
<linearGradient id="paint0_linear_3143_2793" x1="21.6583" y1="18.0253" x2="22.7949" y2="28.289" gradientUnits="userSpaceOnUse">
<stop stop-color="#123214"/>
<stop offset="0.46" stop-color="#3E7C37"/>
<stop offset="0.91" stop-color="#5FBB46"/>
</linearGradient>
<linearGradient id="paint1_linear_3143_2793" x1="28.224" y1="17.3585" x2="28.224" y2="25.6581" gradientUnits="userSpaceOnUse">
<stop stop-color="white" stop-opacity="0"/>
<stop offset="0.64" stop-color="white" stop-opacity="0.43"/>
<stop offset="1" stop-color="white" stop-opacity="0.42"/>
</linearGradient>
<radialGradient id="paint2_radial_3143_2793" cx="0" cy="0" r="1" gradientUnits="userSpaceOnUse" gradientTransform="translate(25.1244 15.8581) rotate(26.7606) scale(4.36795 1.81917)">
<stop offset="0.13" stop-color="white"/>
<stop offset="0.29" stop-color="white" stop-opacity="0.69"/>
<stop offset="0.45" stop-color="white" stop-opacity="0.4"/>
<stop offset="0.59" stop-color="white" stop-opacity="0.18"/>
<stop offset="0.69" stop-color="white" stop-opacity="0.05"/>
<stop offset="0.74" stop-color="white" stop-opacity="0"/>
</radialGradient>
<radialGradient id="paint3_radial_3143_2793" cx="0" cy="0" r="1" gradientUnits="userSpaceOnUse" gradientTransform="translate(23.5583 19.7654) rotate(39.84) scale(9.78846 10.6694)">
<stop offset="0.86" stop-opacity="0"/>
<stop offset="0.98" stop-opacity="0.47"/>
<stop offset="1"/>
</radialGradient>
</defs>
</svg>
