<svg width="35" height="35" viewBox="0 0 43 43" fill="none" xmlns="http://www.w3.org/2000/svg">
<circle cx="21.5" cy="21.5" r="21.5" fill="#FF3A3A" fill-opacity="0.2"/>
<path d="M32.7797 11.2202H11.2197V32.7796H32.7797V11.2202Z" fill="#FFC325"/>
<path d="M11.5479 22.0001C11.5479 19.7484 16.2275 17.9229 22.0001 17.9229C27.7726 17.9229 32.4523 19.7489 32.4523 22.0003C32.4523 24.2518 27.7729 26.0769 22.0001 26.0769C16.2273 26.0769 11.5479 24.2516 11.5479 22.0001Z" fill="#006891"/>
<path d="M11.5479 22.0001C11.5479 19.7484 16.2275 17.9229 22.0001 17.9229C27.7726 17.9229 32.4523 19.7489 32.4523 22.0003C32.4523 24.2518 27.7729 26.0769 22.0001 26.0769C16.2273 26.0769 11.5479 24.2516 11.5479 22.0001Z" stroke="#006891" stroke-width="1.40509" stroke-miterlimit="3.8636"/>
<path fill-rule="evenodd" clip-rule="evenodd" d="M15.3789 23.9817L16.4637 19.9321H18.176V22.3138H18.1872L19.3488 19.9321H21.0881L20.0033 23.9817H18.8727L19.5681 21.3841H19.5569L18.176 23.9817H17.2707V21.3841H17.2522L16.5568 23.9817H15.3789Z" fill="white"/>
<path fill-rule="evenodd" clip-rule="evenodd" d="M21.3936 24.0618L21.5476 23.4863H22.7954L22.6412 24.0618H21.3936Z" fill="#EE4034"/>
<path fill-rule="evenodd" clip-rule="evenodd" d="M21.591 23.3245L22.2222 20.9701H21.0879L21.3662 19.9321H24.8825L24.6044 20.9701H23.4701L22.8391 23.3239L21.591 23.3245Z" fill="#FFC325"/>
<path fill-rule="evenodd" clip-rule="evenodd" d="M24.0762 23.9817L25.1603 19.9321H26.3857L26.9386 22.0989H26.9494L27.5297 19.9321H28.6625L27.5781 23.9817H26.4124L25.812 21.77H25.8012L25.209 23.9817H24.0762Z" fill="white"/>
</svg>
