<svg width="30" height="30" viewBox="0 0 30 30" fill="none" xmlns="http://www.w3.org/2000/svg">
<circle cx="15" cy="15" r="15" fill="#FF3A3A" fill-opacity="0.2"/>
<path d="M9.875 10.125C9.875 9.79348 10.0067 9.47554 10.2411 9.24112C10.4755 9.0067 10.7935 8.875 11.125 8.875H13.175C13.3061 8.8751 13.4339 8.91644 13.5402 8.99316C13.6466 9.06988 13.7261 9.1781 13.7675 9.3025L14.7037 12.1106C14.7512 12.2533 14.7456 12.4084 14.6879 12.5473C14.6303 12.6862 14.5245 12.7997 14.39 12.8669L12.9794 13.5731C13.6708 15.1035 14.8965 16.3292 16.4269 17.0206L17.1331 15.61C17.2003 15.4755 17.3138 15.3697 17.4527 15.3121C17.5916 15.2544 17.7467 15.2488 17.8894 15.2963L20.6975 16.2325C20.822 16.274 20.9303 16.3536 21.007 16.46C21.0838 16.5665 21.125 16.6944 21.125 16.8256V18.875C21.125 19.2065 20.9933 19.5245 20.7589 19.7589C20.5245 19.9933 20.2065 20.125 19.875 20.125H19.25C14.0725 20.125 9.875 15.9275 9.875 10.75V10.125Z" stroke="#FF0000" stroke-width="2" stroke-linecap="round" stroke-linejoin="round"/>
</svg>
