<svg width="30" height="30" viewBox="0 0 43 43" fill="none" xmlns="http://www.w3.org/2000/svg">
<circle cx="21.5" cy="21.5" r="21.5" fill="#FF3A3A" fill-opacity="0.2"/>
<path d="M22 28H22.01H22ZM18 31H26C26.5304 31 27.0391 30.7893 27.4142 30.4142C27.7893 30.0391 28 29.5304 28 29V15C28 14.4696 27.7893 13.9609 27.4142 13.5858C27.0391 13.2107 26.5304 13 26 13H18C17.4696 13 16.9609 13.2107 16.5858 13.5858C16.2107 13.9609 16 14.4696 16 15V29C16 29.5304 16.2107 30.0391 16.5858 30.4142C16.9609 30.7893 17.4696 31 18 31Z" stroke="#D40000" stroke-width="2" stroke-linecap="round" stroke-linejoin="round"/>
</svg>
