<svg width="30" height="30" viewBox="0 0 30 30" fill="none" xmlns="http://www.w3.org/2000/svg">
<rect width="30" height="30" rx="8" fill="#09D85C" fill-opacity="0.2"/>
<path fill-rule="evenodd" clip-rule="evenodd" d="M22.6651 15.3297C22.8795 15.5407 23 15.8268 23 16.1251C23 16.4234 22.8795 16.7095 22.6651 16.9205L15.8018 23.6706C15.5873 23.8815 15.2964 24 14.9931 24C14.6898 24 14.3989 23.8815 14.1844 23.6706L7.3211 16.9205C7.11273 16.7083 6.99744 16.4242 7.00004 16.1292C7.00265 15.8342 7.12295 15.552 7.33503 15.3435C7.54712 15.1349 7.83402 15.0166 8.13394 15.014C8.43386 15.0114 8.72281 15.1248 8.93854 15.3297L13.8492 20.1594L13.8492 7.12502C13.8492 6.82664 13.9697 6.54049 14.1843 6.32951C14.3988 6.11853 14.6897 6 14.9931 6C15.2965 6 15.5874 6.11853 15.8019 6.32951C16.0165 6.54049 16.137 6.82664 16.137 7.12502V20.1594L21.0476 15.3297C21.2622 15.1188 21.5531 15.0004 21.8564 15.0004C22.1597 15.0004 22.4506 15.1188 22.6651 15.3297V15.3297Z" fill="#0ACF83"/>
</svg>
