<svg width="30" height="30" viewBox="0 0 30 30" fill="none" xmlns="http://www.w3.org/2000/svg">
<path fill-rule="evenodd" clip-rule="evenodd" d="M7.33491 14.6703C7.12047 14.4593 7 14.1732 7 13.8749C7 13.5766 7.12047 13.2905 7.33491 13.0795L14.1982 6.32939C14.4127 6.11848 14.7036 6 15.0069 6C15.3102 6 15.6011 6.11848 15.8156 6.32939L22.6789 13.0795C22.8873 13.2917 23.0026 13.5758 23 13.8708C22.9974 14.1658 22.877 14.448 22.665 14.6565C22.4529 14.8651 22.166 14.9834 21.8661 14.986C21.5661 14.9886 21.2772 14.8752 21.0615 14.6703L16.1508 9.84056V22.875C16.1508 23.1734 16.0303 23.4595 15.8157 23.6705C15.6012 23.8815 15.3103 24 15.0069 24C14.7035 24 14.4126 23.8815 14.1981 23.6705C13.9835 23.4595 13.863 23.1734 13.863 22.875V9.84056L8.95236 14.6703C8.73785 14.8812 8.44695 14.9996 8.14363 14.9996C7.84032 14.9996 7.54942 14.8812 7.33491 14.6703V14.6703Z" fill="#FF0000"/>
<rect width="30" height="30" rx="8" fill="#FF3A3A" fill-opacity="0.2"/>
</svg>
