<svg width="30" height="30" viewBox="0 0 43 43" fill="none" xmlns="http://www.w3.org/2000/svg">
<circle cx="21.5" cy="21.5" r="21.5" fill="#FF3A3A" fill-opacity="0.2"/>
<path d="M15 31.6H15.39L22.27 21.42C22.36 21.24 22.31 21.15 22.12 21.15H19.28L22.27 15.7C22.36 15.52 22.29 15.43 22.07 15.43H18.26C18.15 15.43 18.06 15.49 17.97 15.61L15.19 23.01C15.17 23.19 15.23 23.28 15.38 23.28H18.13L15 31.6V31.6ZM23.5 25.27H23.77L28.99 17.6C29.04 17.52 29.05 17.45 29.03 17.4C29.01 17.35 28.95 17.33 28.86 17.33H26.76L28.94 13.3C29.06 13.1 29 13 28.76 13H26.02C25.89 13 25.79 13.06 25.72 13.19L23.64 18.67C23.61 18.76 23.61 18.83 23.65 18.88C23.69 18.93 23.75 18.95 23.84 18.95H25.88L23.5 25.27V25.27Z" fill="#D40000"/>
</svg>
