<svg width="43" height="43" viewBox="0 0 43 43" fill="none" xmlns="http://www.w3.org/2000/svg">
<circle cx="21.5" cy="21.5" r="21.5" fill="#FFE9D7"/>
<path d="M31 17H24C22.4087 17 20.8826 17.6321 19.7574 18.7574C18.6321 19.8826 18 21.4087 18 23C18 24.5913 18.6321 26.1174 19.7574 27.2426C20.8826 28.3679 22.4087 29 24 29H31V31C31 31.2652 30.8946 31.5196 30.7071 31.7071C30.5196 31.8946 30.2652 32 30 32H12C11.7348 32 11.4804 31.8946 11.2929 31.7071C11.1054 31.5196 11 31.2652 11 31V15C11 14.7348 11.1054 14.4804 11.2929 14.2929C11.4804 14.1054 11.7348 14 12 14H30C30.2652 14 30.5196 14.1054 30.7071 14.2929C30.8946 14.4804 31 14.7348 31 15V17ZM24 19H32V27H24C22.9391 27 21.9217 26.5786 21.1716 25.8284C20.4214 25.0783 20 24.0609 20 23C20 21.9391 20.4214 20.9217 21.1716 20.1716C21.9217 19.4214 22.9391 19 24 19ZM24 22V24H27V22H24Z" fill="#F18403"/>
</svg>
