<svg width="43" height="43" viewBox="0 0 43 43" fill="none" xmlns="http://www.w3.org/2000/svg">
<circle cx="21.5" cy="21.5" r="21.5" fill="#FF3A3A" fill-opacity="0.2"/>
<path d="M19 22H25H19ZM19 26H25H19ZM27 31H17C16.4696 31 15.9609 30.7893 15.5858 30.4142C15.2107 30.0391 15 29.5304 15 29V15C15 14.4696 15.2107 13.9609 15.5858 13.5858C15.9609 13.2107 16.4696 13 17 13H22.586C22.8512 13.0001 23.1055 13.1055 23.293 13.293L28.707 18.707C28.8946 18.8945 28.9999 19.1488 29 19.414V29C29 29.5304 28.7893 30.0391 28.4142 30.4142C28.0391 30.7893 27.5304 31 27 31Z" stroke="#D40000" stroke-linecap="round" stroke-linejoin="round"/>
</svg>
