<svg width="30" height="30" viewBox="0 0 43 43" fill="none" xmlns="http://www.w3.org/2000/svg">
<circle cx="21.5" cy="21.5" r="21.5" fill="#FF3A3A" fill-opacity="0.2"/>
<path fill-rule="evenodd" clip-rule="evenodd" d="M13 13H22V22H13V13ZM14.2857 14.2857H20.7143V20.7143H14.2857V14.2857ZM15.5714 15.5714H19.4286V19.4286H15.5714V15.5714ZM16.8571 16.8571H18.1429V18.1429H16.8571V16.8571ZM23.2857 14.2857H29.7143V20.7143H23.2857V14.2857ZM24.5714 15.5714H28.4286V19.4286H24.5714V15.5714ZM25.8571 16.8571H27.1429V18.1429H25.8571V16.8571ZM31 22H22V31H31V22ZM29.7143 23.2857H23.2857V29.7143H29.7143V23.2857ZM28.4286 24.5714H24.5714V28.4286H28.4286V24.5714ZM27.1429 25.8571H25.8571V27.1429H27.1429V25.8571ZM20.7143 23.2857H14.2857V29.7143H20.7143V23.2857ZM19.4286 24.5714H15.5714V28.4286H19.4286V24.5714ZM18.1429 25.8571H16.8571V27.1429H18.1429V25.8571Z" fill="#D40000"/>
</svg>
