<svg width="30" height="30" viewBox="0 0 30 30" fill="none" xmlns="http://www.w3.org/2000/svg">
<rect width="30" height="30" rx="8" fill="white"/>
<path d="M17 12.8125H15.875V14.5H14.1875V15.625H15.875V17.3125H17V15.625H18.6875V14.5H17V12.8125ZM9.125 15.0625C9.125 13.4931 10.0475 12.1375 11.3806 11.5075V10.2925C9.4175 10.99 8 12.8631 8 15.0625C8 17.2619 9.4175 19.135 11.3806 19.8325V18.6175C10.7063 18.2997 10.1363 17.7968 9.73689 17.1673C9.33753 16.5379 9.12531 15.8079 9.125 15.0625V15.0625ZM16.4375 10C13.6475 10 11.375 12.2725 11.375 15.0625C11.375 17.8525 13.6475 20.125 16.4375 20.125C19.2275 20.125 21.5 17.8525 21.5 15.0625C21.5 12.2725 19.2275 10 16.4375 10ZM16.4375 19C14.2663 19 12.5 17.2337 12.5 15.0625C12.5 12.8913 14.2663 11.125 16.4375 11.125C18.6087 11.125 20.375 12.8913 20.375 15.0625C20.375 17.2337 18.6087 19 16.4375 19Z" fill="#FF0000"/>
</svg>
