<svg width="30" height="30" viewBox="0 0 30 30" fill="none" xmlns="http://www.w3.org/2000/svg">
<rect width="30" height="30" rx="8" fill="white"/>
<path d="M21.4399 11.2H18.8799V10.5599H20.7999V8.95994C20.7999 8.87512 20.7662 8.79376 20.7062 8.73371C20.6461 8.67367 20.5648 8.63997 20.4799 8.63997H8.95994C8.78327 8.63997 8.63997 8.78327 8.63997 8.95994V10.5599H10.5599V11.2H8V8.95994C8 8.70536 8.10112 8.46117 8.28114 8.28114C8.46116 8.10111 8.70537 8 8.95994 8L20.4799 8C20.7345 8 20.9787 8.10112 21.1587 8.28114C21.3388 8.46116 21.4399 8.70537 21.4399 8.95994L21.4399 11.2Z" fill="#FF0000"/>
<path d="M17.9196 21.4399H11.5196C11.265 21.4399 11.0209 21.3388 10.8408 21.1588C10.6608 20.9788 10.5596 20.7346 10.5596 20.48V8L18.8796 8V20.48C18.8796 20.7346 18.7783 20.9788 18.5983 21.1588C18.4183 21.3388 18.1741 21.4399 17.9195 21.4399H17.9196ZM11.1996 8.63994V20.4799C11.1996 20.5648 11.2333 20.6461 11.2934 20.7062C11.3533 20.7662 11.4348 20.7999 11.5196 20.7999H17.9196C18.0044 20.7999 18.0859 20.7662 18.1458 20.7062C18.2059 20.6461 18.2396 20.5648 18.2396 20.4799V8.63994H11.1996Z" fill="#FF0000"/>
<path d="M14.7203 16.1981C14.508 16.1998 14.3044 16.1142 14.1571 15.9614L13.4786 15.2829C13.3286 15.1339 13.2441 14.9313 13.2441 14.7198C13.2441 14.5083 13.3286 14.3056 13.4786 14.1566L14.1571 13.4781C14.3061 13.3281 14.5088 13.2437 14.7203 13.2437C14.9317 13.2437 15.1344 13.3281 15.2834 13.4781L15.9619 14.1566C16.1119 14.3056 16.1964 14.5083 16.1964 14.7198C16.1964 14.9313 16.1119 15.1339 15.9619 15.2829L15.2834 15.9614C15.1361 16.1142 14.9325 16.1998 14.7203 16.1981ZM14.7203 13.8813V13.8814C14.6775 13.8809 14.6363 13.897 14.6051 13.9261L13.9266 14.6046C13.868 14.6702 13.868 14.7693 13.9266 14.8349L14.6051 15.5134C14.6707 15.572 14.7698 15.572 14.8354 15.5134L15.5139 14.8349C15.5725 14.7693 15.5725 14.6702 15.5139 14.6046L14.8354 13.9261C14.8042 13.897 14.763 13.8809 14.7203 13.8814L14.7203 13.8813Z" fill="#FF0000"/>
<path d="M16.3203 9.91992H16.9603V11.8399H16.3203V9.91992Z" fill="#FF0000"/>
<path d="M12.4795 17.6001H13.1194V19.5201H12.4795V17.6001Z" fill="#FF0000"/>
<path d="M19.8398 20.1599H18.8799V19.52H19.8399H19.8398C19.9248 19.52 20.0061 19.4863 20.0662 19.4262C20.1261 19.3663 20.1598 19.2848 20.1598 19.2V12.48H20.7997L20.7999 19.2C20.7999 19.4546 20.6987 19.6988 20.5186 19.8788C20.3386 20.0588 20.0944 20.1599 19.8398 20.1599L19.8398 20.1599Z" fill="#FF0000"/>
</svg>
