<svg width="21" height="20" viewBox="0 0 21 20" fill="none" xmlns="http://www.w3.org/2000/svg">
<path fill-rule="evenodd" clip-rule="evenodd" d="M19.8884 12.8957H15.8404C13.9434 12.8957 12.3994 11.3527 12.3984 9.45667C12.3984 7.55867 13.9424 6.01467 15.8404 6.01367H19.8884C20.3024 6.01367 20.6384 6.34967 20.6384 6.76367C20.6384 7.17767 20.3024 7.51367 19.8884 7.51367H15.8404C14.7694 7.51467 13.8984 8.38567 13.8984 9.45567C13.8984 10.5247 14.7704 11.3957 15.8404 11.3957H19.8884C20.3024 11.3957 20.6384 11.7317 20.6384 12.1457C20.6384 12.5597 20.3024 12.8957 19.8884 12.8957Z" fill="black"/>
<path fill-rule="evenodd" clip-rule="evenodd" d="M16.2983 10.1436H15.9863C15.5723 10.1436 15.2363 9.80755 15.2363 9.39355C15.2363 8.97955 15.5723 8.64355 15.9863 8.64355H16.2983C16.7123 8.64355 17.0483 8.97955 17.0483 9.39355C17.0483 9.80755 16.7123 10.1436 16.2983 10.1436Z" fill="black"/>
<mask id="mask0_3244_4166" style="mask-type:alpha" maskUnits="userSpaceOnUse" x="0" y="0" width="21" height="20">
<path fill-rule="evenodd" clip-rule="evenodd" d="M0 0H20.6386V19.1729H0V0Z" fill="white"/>
</mask>
<g mask="url(#mask0_3244_4166)">
<path fill-rule="evenodd" clip-rule="evenodd" d="M5.998 1.5C3.518 1.5 1.5 3.518 1.5 5.998V13.175C1.5 15.655 3.518 17.673 5.998 17.673H14.642C17.122 17.673 19.139 15.655 19.139 13.175V5.998C19.139 3.518 17.122 1.5 14.642 1.5H5.998ZM14.642 19.173H5.998C2.691 19.173 0 16.482 0 13.175V5.998C0 2.69 2.691 0 5.998 0H14.642C17.949 0 20.639 2.69 20.639 5.998V13.175C20.639 16.482 17.949 19.173 14.642 19.173Z" fill="black"/>
</g>
<path fill-rule="evenodd" clip-rule="evenodd" d="M10.6842 6.03809H5.28516C4.87116 6.03809 4.53516 5.70209 4.53516 5.28809C4.53516 4.87409 4.87116 4.53809 5.28516 4.53809H10.6842C11.0982 4.53809 11.4342 4.87409 11.4342 5.28809C11.4342 5.70209 11.0982 6.03809 10.6842 6.03809Z" fill="black"/>
</svg>
